<svg xmlns="http://www.w3.org/2000/svg" width="404" height="404" fill="none"><path fill="#F43" d="M311.976 114.785h45v180h-45zm-265.5 0h45v175.5h-45zm90 31.501h45v58.71l-45 24.75v-83.46Zm90 51.89 45-25.962v82.071h-45v-56.109Z"/><path fill="#F43" d="m334.671 254.372 22.5 38.971-108.195 62.467-45-25.981 130.695-75.457Zm-85.623-38.12 22.5 38.971-142.7 82.388-22.5-38.971zm27.099-150.359 22.5 38.971-139.416 80.491-22.5-38.97zM156.726 48.99l45 25.981L68.5 151.89 46 112.918 156.726 48.99Z"/><path fill="#F43" d="m278.514 67.506-22.5 38.97 78.515 45.331 22.5-38.97zM69.04 251.049l-22.5 38.971 81.927 47.3 22.5-38.971z"/></svg>